<svg xmlns:xlink="http://www.w3.org/1999/xlink" width="614.4" height="460.8" viewBox="0 0 460.8 345.6" xmlns="http://www.w3.org/2000/svg"><defs><style>*{stroke-linejoin:round;stroke-linecap:butt}</style></defs><g id="figure_1"><path d="M0 345.6h460.8V0H0z" style="fill:#fff" id="patch_1"/><g id="axes_1"><path d="M56.015 303.64H450V10.8H56.015z" style="fill:#fff" id="patch_2"/><path d="M71.169 46461.197h-6.062V170.281h6.062z" clip-path="url(#p586fb0ebf7)" style="fill:#1f77b4" id="patch_3"/><path d="M86.322 46461.197H80.26V173.873h6.06z" clip-path="url(#p586fb0ebf7)" style="fill:#1f77b4" id="patch_4"/><path d="M101.475 46461.197h-6.061V178.787h6.061z" clip-path="url(#p586fb0ebf7)" style="fill:#1f77b4" id="patch_5"/><path d="M116.628 46461.197h-6.06V170.748h6.06z" clip-path="url(#p586fb0ebf7)" style="fill:#1f77b4" id="patch_6"/><path d="M131.782 46461.197h-6.062V135.484h6.062z" clip-path="url(#p586fb0ebf7)" style="fill:#1f77b4" id="patch_7"/><path d="M146.935 46461.197h-6.061V219.92h6.06z" clip-path="url(#p586fb0ebf7)" style="fill:#1f77b4" id="patch_8"/><path d="M162.088 46461.197h-6.061V184.103h6.061z" clip-path="url(#p586fb0ebf7)" style="fill:#1f77b4" id="patch_9"/><path d="M177.241 46461.197h-6.06V168.066h6.06z" clip-path="url(#p586fb0ebf7)" style="fill:#1f77b4" id="patch_10"/><path d="M192.395 46461.197h-6.062V172.313h6.062z" clip-path="url(#p586fb0ebf7)" style="fill:#1f77b4" id="patch_11"/><path d="M207.548 46461.197h-6.061V175.757h6.06z" clip-path="url(#p586fb0ebf7)" style="fill:#1f77b4" id="patch_12"/><path d="M222.701 46461.197h-6.061V167.721h6.061z" clip-path="url(#p586fb0ebf7)" style="fill:#1f77b4" id="patch_13"/><path d="M237.854 46461.197h-6.06V115.125h6.06z" clip-path="url(#p586fb0ebf7)" style="fill:#1f77b4" id="patch_14"/><path d="M253.008 46461.197h-6.062V171.431h6.062z" clip-path="url(#p586fb0ebf7)" style="fill:#1f77b4" id="patch_15"/><path d="M268.16 46461.197h-6.06V195.635h6.06z" clip-path="url(#p586fb0ebf7)" style="fill:#1f77b4" id="patch_16"/><path d="M283.314 46461.197h-6.061V120.757h6.061z" clip-path="url(#p586fb0ebf7)" style="fill:#1f77b4" id="patch_17"/><path d="M298.467 46461.197h-6.06V182.761h6.06z" clip-path="url(#p586fb0ebf7)" style="fill:#1f77b4" id="patch_18"/><path d="M313.62 46461.197h-6.06V290.217h6.06z" clip-path="url(#p586fb0ebf7)" style="fill:#1f77b4" id="patch_19"/><path d="M328.774 46461.197h-6.061V103.903h6.061z" clip-path="url(#p586fb0ebf7)" style="fill:#1f77b4" id="patch_20"/><path d="M343.927 46461.197h-6.061V40.92h6.061z" clip-path="url(#p586fb0ebf7)" style="fill:#1f77b4" id="patch_21"/><path d="M359.08 46461.197h-6.06V126.207h6.06z" clip-path="url(#p586fb0ebf7)" style="fill:#1f77b4" id="patch_22"/><path d="M374.234 46461.197h-6.062V273.594h6.062z" clip-path="url(#p586fb0ebf7)" style="fill:#1f77b4" id="patch_23"/><path d="M389.387 46461.197h-6.061V168.78h6.061z" clip-path="url(#p586fb0ebf7)" style="fill:#1f77b4" id="patch_24"/><path d="M404.54 46461.197h-6.061V111.784h6.061z" clip-path="url(#p586fb0ebf7)" style="fill:#1f77b4" id="patch_25"/><path d="M419.693 46461.197h-6.06V163.108h6.06z" clip-path="url(#p586fb0ebf7)" style="fill:#1f77b4" id="patch_26"/><path d="M434.847 46461.197h-6.062V48.288h6.062z" clip-path="url(#p586fb0ebf7)" style="fill:#1f77b4" id="patch_27"/><path d="M71.169 46461.197h6.06V170.631h-6.06z" clip-path="url(#p586fb0ebf7)" style="fill:#ff7f0e" id="patch_28"/><path d="M86.322 46461.197h6.061V174.525h-6.061z" clip-path="url(#p586fb0ebf7)" style="fill:#ff7f0e" id="patch_29"/><path d="M101.475 46461.197h6.061V168.497h-6.06z" clip-path="url(#p586fb0ebf7)" style="fill:#ff7f0e" id="patch_30"/><path d="M116.628 46461.197h6.062V156.965h-6.062z" clip-path="url(#p586fb0ebf7)" style="fill:#ff7f0e" id="patch_31"/><path d="M131.782 46461.197h6.06V119.273h-6.06z" clip-path="url(#p586fb0ebf7)" style="fill:#ff7f0e" id="patch_32"/><path d="M146.935 46461.197h6.061V218.847h-6.061z" clip-path="url(#p586fb0ebf7)" style="fill:#ff7f0e" id="patch_33"/><path d="M162.088 46461.197h6.061V171.15h-6.06z" clip-path="url(#p586fb0ebf7)" style="fill:#ff7f0e" id="patch_34"/><path d="M177.241 46461.197h6.062V147.32h-6.062z" clip-path="url(#p586fb0ebf7)" style="fill:#ff7f0e" id="patch_35"/><path d="M192.395 46461.197h6.061V145.33h-6.061z" clip-path="url(#p586fb0ebf7)" style="fill:#ff7f0e" id="patch_36"/><path d="M207.548 46461.197h6.061V175.78h-6.061z" clip-path="url(#p586fb0ebf7)" style="fill:#ff7f0e" id="patch_37"/><path d="M222.701 46461.197h6.061V150.55h-6.06z" clip-path="url(#p586fb0ebf7)" style="fill:#ff7f0e" id="patch_38"/><path d="M237.854 46461.197h6.062V49.81h-6.062z" clip-path="url(#p586fb0ebf7)" style="fill:#ff7f0e" id="patch_39"/><path d="M253.008 46461.197h6.061V177.35h-6.061z" clip-path="url(#p586fb0ebf7)" style="fill:#ff7f0e" id="patch_40"/><path d="M268.16 46461.197h6.062V170.407h-6.061z" clip-path="url(#p586fb0ebf7)" style="fill:#ff7f0e" id="patch_41"/><path d="M283.314 46461.197h6.061V52.46h-6.06z" clip-path="url(#p586fb0ebf7)" style="fill:#ff7f0e" id="patch_42"/><path d="M298.467 46461.197h6.062V182.691h-6.062z" clip-path="url(#p586fb0ebf7)" style="fill:#ff7f0e" id="patch_43"/><path d="M313.62 46461.197h6.062V193.961h-6.061z" clip-path="url(#p586fb0ebf7)" style="fill:#ff7f0e" id="patch_44"/><path d="M328.774 46461.197h6.061V46.447h-6.061z" clip-path="url(#p586fb0ebf7)" style="fill:#ff7f0e" id="patch_45"/><path d="M343.927 46461.197h6.062V40.861h-6.062z" clip-path="url(#p586fb0ebf7)" style="fill:#ff7f0e" id="patch_46"/><path d="M359.08 46461.197h6.062V48.416h-6.062z" clip-path="url(#p586fb0ebf7)" style="fill:#ff7f0e" id="patch_47"/><path d="M374.234 46461.197h6.061V168.431h-6.061z" clip-path="url(#p586fb0ebf7)" style="fill:#ff7f0e" id="patch_48"/><path d="M389.387 46461.197h6.061V91.308h-6.061z" clip-path="url(#p586fb0ebf7)" style="fill:#ff7f0e" id="patch_49"/><path d="M404.54 46461.197h6.062V24.111h-6.062z" clip-path="url(#p586fb0ebf7)" style="fill:#ff7f0e" id="patch_50"/><path d="M419.693 46461.197h6.062V72.905h-6.062z" clip-path="url(#p586fb0ebf7)" style="fill:#ff7f0e" id="patch_51"/><g id="matplotlib.axis_1"><g id="xtick_1"><g id="line2d_1"><defs><path id="m2562351c0d" d="M0 0v3.5" style="stroke:#000;stroke-width:.8"/></defs><use xlink:href="#m2562351c0d" x="71.169" y="303.64" style="stroke:#000;stroke-width:.8"/></g><g transform="matrix(.1 0 0 -.1 67.987 318.238)" id="text_1"><defs><path id="DejaVuSans-31" d="M794 531h1031v3560L703 3866v575l1116 225h631V531h1031V0H794v531z" transform="scale(.01563)"/></defs><use xlink:href="#DejaVuSans-31"/></g></g><g id="xtick_2"><use xlink:href="#m2562351c0d" x="86.322" y="303.64" style="stroke:#000;stroke-width:.8" id="line2d_2"/><g transform="matrix(.1 0 0 -.1 83.14 318.238)" id="text_2"><defs><path id="DejaVuSans-32" d="M1228 531h2203V0H469v531q359 372 979 998 621 627 780 809 303 340 423 576 121 236 121 464 0 372-261 606-261 235-680 235-297 0-627-103-329-103-704-313v638q381 153 712 231 332 78 607 78 725 0 1156-363 431-362 431-968 0-288-108-546-107-257-392-607-78-91-497-524-418-433-1181-1211z" transform="scale(.01563)"/></defs><use xlink:href="#DejaVuSans-32"/></g></g><g id="xtick_3"><use xlink:href="#m2562351c0d" x="101.475" y="303.64" style="stroke:#000;stroke-width:.8" id="line2d_3"/><g transform="matrix(.1 0 0 -.1 98.294 318.238)" id="text_3"><defs><path id="DejaVuSans-33" d="M2597 2516q453-97 707-404 255-306 255-756 0-690-475-1069Q2609-91 1734-91q-293 0-604 58T488 141v609q262-153 574-231 313-78 654-78 593 0 904 234t311 681q0 413-289 645-289 233-804 233h-544v519h569q465 0 712 186t247 536q0 359-255 551-254 193-729 193-260 0-557-57-297-56-653-174v562q360 100 674 150t592 50q719 0 1137-327 419-326 419-882 0-388-222-655t-631-370z" transform="scale(.01563)"/></defs><use xlink:href="#DejaVuSans-33"/></g></g><g id="xtick_4"><use xlink:href="#m2562351c0d" x="116.628" y="303.64" style="stroke:#000;stroke-width:.8" id="line2d_4"/><g transform="matrix(.1 0 0 -.1 113.447 318.238)" id="text_4"><defs><path id="DejaVuSans-34" d="M2419 4116 825 1625h1594v2491zm-166 550h794V1625h666v-525h-666V0h-628v1100H313v609l1940 2957z" transform="scale(.01563)"/></defs><use xlink:href="#DejaVuSans-34"/></g></g><g id="xtick_5"><use xlink:href="#m2562351c0d" x="131.782" y="303.64" style="stroke:#000;stroke-width:.8" id="line2d_5"/><g transform="matrix(.1 0 0 -.1 128.6 318.238)" id="text_5"><defs><path id="DejaVuSans-35" d="M691 4666h2478v-532H1269V2991q137 47 274 70 138 23 276 23 781 0 1237-428 457-428 457-1159 0-753-469-1171Q2575-91 1722-91q-294 0-599 50Q819 9 494 109v635q281-153 581-228t634-75q541 0 856 284 316 284 316 772 0 487-316 771-315 285-856 285-253 0-505-56-251-56-513-175v2344z" transform="scale(.01563)"/></defs><use xlink:href="#DejaVuSans-35"/></g></g><g id="xtick_6"><use xlink:href="#m2562351c0d" x="146.935" y="303.64" style="stroke:#000;stroke-width:.8" id="line2d_6"/><g transform="matrix(.1 0 0 -.1 143.754 318.238)" id="text_6"><defs><path id="DejaVuSans-36" d="M2113 2584q-425 0-674-291-248-290-248-796 0-503 248-796 249-292 674-292t673 292q248 293 248 796 0 506-248 796-248 291-673 291zm1253 1979v-575q-238 112-480 171-242 60-480 60-625 0-955-422-329-422-376-1275 184 272 462 417 279 145 613 145 703 0 1111-427 408-426 408-1160 0-719-425-1154Q2819-91 2113-91q-810 0-1238 620-428 621-428 1799 0 1106 525 1764t1409 658q238 0 480-47t505-140z" transform="scale(.01563)"/></defs><use xlink:href="#DejaVuSans-36"/></g></g><g id="xtick_7"><use xlink:href="#m2562351c0d" x="162.088" y="303.64" style="stroke:#000;stroke-width:.8" id="line2d_7"/><g transform="matrix(.1 0 0 -.1 158.907 318.238)" id="text_7"><defs><path id="DejaVuSans-37" d="M525 4666h3000v-269L1831 0h-659l1594 4134H525v532z" transform="scale(.01563)"/></defs><use xlink:href="#DejaVuSans-37"/></g></g><g id="xtick_8"><use xlink:href="#m2562351c0d" x="177.241" y="303.64" style="stroke:#000;stroke-width:.8" id="line2d_8"/><g transform="matrix(.1 0 0 -.1 174.06 318.238)" id="text_8"><defs><path id="DejaVuSans-38" d="M2034 2216q-450 0-708-241-257-241-257-662 0-422 257-663 258-241 708-241t709 242q260 243 260 662 0 421-258 662-257 241-711 241zm-631 268q-406 100-633 378-226 279-226 679 0 559 398 884 399 325 1092 325 697 0 1094-325t397-884q0-400-227-679-226-278-629-378 456-106 710-416 255-309 255-755 0-679-414-1042Q2806-91 2034-91q-771 0-1186 362-414 363-414 1042 0 446 256 755 257 310 713 416zm-231 997q0-362 226-565 227-203 636-203 407 0 636 203 230 203 230 565 0 363-230 566-229 203-636 203-409 0-636-203-226-203-226-566z" transform="scale(.01563)"/></defs><use xlink:href="#DejaVuSans-38"/></g></g><g id="xtick_9"><use xlink:href="#m2562351c0d" x="192.395" y="303.64" style="stroke:#000;stroke-width:.8" id="line2d_9"/><g transform="matrix(.1 0 0 -.1 189.213 318.238)" id="text_9"><defs><path id="DejaVuSans-39" d="M703 97v575q238-113 481-172 244-59 479-59 625 0 954 420 330 420 377 1277-181-269-460-413-278-144-615-144-700 0-1108 423-408 424-408 1159 0 718 425 1152 425 435 1131 435 810 0 1236-621 427-620 427-1801 0-1103-524-1761Q2575-91 1691-91q-238 0-482 47Q966 3 703 97zm1256 1978q425 0 673 290 249 291 249 798 0 503-249 795-248 292-673 292t-673-292q-248-292-248-795 0-507 248-798 248-290 673-290z" transform="scale(.01563)"/></defs><use xlink:href="#DejaVuSans-39"/></g></g><g id="xtick_10"><use xlink:href="#m2562351c0d" x="207.548" y="303.64" style="stroke:#000;stroke-width:.8" id="line2d_10"/><g transform="matrix(.1 0 0 -.1 201.185 318.238)" id="text_10"><defs><path id="DejaVuSans-30" d="M2034 4250q-487 0-733-480-245-479-245-1442 0-959 245-1439 246-480 733-480 491 0 736 480 246 480 246 1439 0 963-246 1442-245 480-736 480zm0 500q785 0 1199-621 414-620 414-1801 0-1178-414-1799Q2819-91 2034-91q-784 0-1198 620-414 621-414 1799 0 1181 414 1801 414 621 1198 621z" transform="scale(.01563)"/></defs><use xlink:href="#DejaVuSans-31"/><use xlink:href="#DejaVuSans-30" x="63.623"/></g></g><g id="xtick_11"><use xlink:href="#m2562351c0d" x="222.701" y="303.64" style="stroke:#000;stroke-width:.8" id="line2d_11"/><g transform="matrix(.1 0 0 -.1 216.339 318.238)" id="text_11"><use xlink:href="#DejaVuSans-31"/><use xlink:href="#DejaVuSans-31" x="63.623"/></g></g><g id="xtick_12"><use xlink:href="#m2562351c0d" x="237.854" y="303.64" style="stroke:#000;stroke-width:.8" id="line2d_12"/><g transform="matrix(.1 0 0 -.1 231.492 318.238)" id="text_12"><use xlink:href="#DejaVuSans-31"/><use xlink:href="#DejaVuSans-32" x="63.623"/></g></g><g id="xtick_13"><use xlink:href="#m2562351c0d" x="253.008" y="303.64" style="stroke:#000;stroke-width:.8" id="line2d_13"/><g transform="matrix(.1 0 0 -.1 246.645 318.238)" id="text_13"><use xlink:href="#DejaVuSans-31"/><use xlink:href="#DejaVuSans-33" x="63.623"/></g></g><g id="xtick_14"><use xlink:href="#m2562351c0d" x="268.161" y="303.64" style="stroke:#000;stroke-width:.8" id="line2d_14"/><g transform="matrix(.1 0 0 -.1 261.798 318.238)" id="text_14"><use xlink:href="#DejaVuSans-31"/><use xlink:href="#DejaVuSans-34" x="63.623"/></g></g><g id="xtick_15"><use xlink:href="#m2562351c0d" x="283.314" y="303.64" style="stroke:#000;stroke-width:.8" id="line2d_15"/><g transform="matrix(.1 0 0 -.1 276.952 318.238)" id="text_15"><use xlink:href="#DejaVuSans-31"/><use xlink:href="#DejaVuSans-35" x="63.623"/></g></g><g id="xtick_16"><use xlink:href="#m2562351c0d" x="298.467" y="303.64" style="stroke:#000;stroke-width:.8" id="line2d_16"/><g transform="matrix(.1 0 0 -.1 292.105 318.238)" id="text_16"><use xlink:href="#DejaVuSans-31"/><use xlink:href="#DejaVuSans-36" x="63.623"/></g></g><g id="xtick_17"><use xlink:href="#m2562351c0d" x="313.621" y="303.64" style="stroke:#000;stroke-width:.8" id="line2d_17"/><g transform="matrix(.1 0 0 -.1 307.258 318.238)" id="text_17"><use xlink:href="#DejaVuSans-31"/><use xlink:href="#DejaVuSans-37" x="63.623"/></g></g><g id="xtick_18"><use xlink:href="#m2562351c0d" x="328.774" y="303.64" style="stroke:#000;stroke-width:.8" id="line2d_18"/><g transform="matrix(.1 0 0 -.1 322.411 318.238)" id="text_18"><use xlink:href="#DejaVuSans-31"/><use xlink:href="#DejaVuSans-38" x="63.623"/></g></g><g id="xtick_19"><use xlink:href="#m2562351c0d" x="343.927" y="303.64" style="stroke:#000;stroke-width:.8" id="line2d_19"/><g transform="matrix(.1 0 0 -.1 337.565 318.238)" id="text_19"><use xlink:href="#DejaVuSans-31"/><use xlink:href="#DejaVuSans-39" x="63.623"/></g></g><g id="xtick_20"><use xlink:href="#m2562351c0d" x="359.08" y="303.64" style="stroke:#000;stroke-width:.8" id="line2d_20"/><g transform="matrix(.1 0 0 -.1 352.718 318.238)" id="text_20"><use xlink:href="#DejaVuSans-32"/><use xlink:href="#DejaVuSans-30" x="63.623"/></g></g><g id="xtick_21"><use xlink:href="#m2562351c0d" x="374.234" y="303.64" style="stroke:#000;stroke-width:.8" id="line2d_21"/><g transform="matrix(.1 0 0 -.1 367.871 318.238)" id="text_21"><use xlink:href="#DejaVuSans-32"/><use xlink:href="#DejaVuSans-31" x="63.623"/></g></g><g id="xtick_22"><use xlink:href="#m2562351c0d" x="389.387" y="303.64" style="stroke:#000;stroke-width:.8" id="line2d_22"/><g transform="matrix(.1 0 0 -.1 383.024 318.238)" id="text_22"><use xlink:href="#DejaVuSans-32"/><use xlink:href="#DejaVuSans-32" x="63.623"/></g></g><g id="xtick_23"><use xlink:href="#m2562351c0d" x="404.54" y="303.64" style="stroke:#000;stroke-width:.8" id="line2d_23"/><g transform="matrix(.1 0 0 -.1 398.178 318.238)" id="text_23"><use xlink:href="#DejaVuSans-32"/><use xlink:href="#DejaVuSans-33" x="63.623"/></g></g><g id="xtick_24"><use xlink:href="#m2562351c0d" x="419.693" y="303.64" style="stroke:#000;stroke-width:.8" id="line2d_24"/><g transform="matrix(.1 0 0 -.1 413.331 318.238)" id="text_24"><use xlink:href="#DejaVuSans-32"/><use xlink:href="#DejaVuSans-34" x="63.623"/></g></g><g id="xtick_25"><use xlink:href="#m2562351c0d" x="434.847" y="303.64" style="stroke:#000;stroke-width:.8" id="line2d_25"/><g transform="matrix(.1 0 0 -.1 428.484 318.238)" id="text_25"><use xlink:href="#DejaVuSans-32"/><use xlink:href="#DejaVuSans-35" x="63.623"/></g></g><g transform="matrix(.1 0 0 -.1 243.134 331.917)" id="text_26"><defs><path id="DejaVuSans-44" d="M1259 4147V519h763q966 0 1414 437 448 438 448 1382 0 937-448 1373t-1414 436h-763zm-631 519h1297q1356 0 1990-564 635-564 635-1764 0-1207-638-1773Q3275 0 1925 0H628v4666z" transform="scale(.01563)"/><path id="DejaVuSans-61" d="M2194 1759q-697 0-966-159t-269-544q0-306 202-486 202-179 548-179 479 0 768 339t289 901v128h-572zm1147 238V0h-575v531q-197-318-491-470T1556-91q-537 0-855 302-317 302-317 808 0 590 395 890 396 300 1180 300h807v57q0 397-261 614t-733 217q-300 0-585-72-284-72-546-216v532q315 122 612 182 297 61 578 61 760 0 1135-394 375-393 375-1193z" transform="scale(.01563)"/><path id="DejaVuSans-79" d="M2059-325q-243-625-475-815-231-191-618-191H506v481h338q237 0 368 113 132 112 291 531l103 262L191 3500h609L1894 763l1094 2737h609L2059-325z" transform="scale(.01563)"/></defs><use xlink:href="#DejaVuSans-44"/><use xlink:href="#DejaVuSans-61" x="77.002"/><use xlink:href="#DejaVuSans-79" x="138.281"/></g></g><g id="matplotlib.axis_2"><g id="ytick_1"><g id="line2d_26"><defs><path id="m15a3f69701" d="M0 0h-3.5" style="stroke:#000;stroke-width:.8"/></defs><use xlink:href="#m15a3f69701" x="56.015" y="299.811" style="stroke:#000;stroke-width:.8"/></g><g transform="matrix(.1 0 0 -.1 25.515 303.61)" id="text_27"><defs><path id="DejaVuSans-2212" d="M678 2272h4006v-531H678v531z" transform="scale(.01563)"/></defs><use xlink:href="#DejaVuSans-31" transform="translate(0 .684)"/><use xlink:href="#DejaVuSans-30" transform="translate(63.623 .684)"/><use xlink:href="#DejaVuSans-2212" transform="matrix(.7 0 0 .7 128.203 38.966)"/><use xlink:href="#DejaVuSans-37" transform="matrix(.7 0 0 .7 186.855 38.966)"/></g></g><g id="ytick_2"><use xlink:href="#m15a3f69701" x="56.015" y="253.325" style="stroke:#000;stroke-width:.8" id="line2d_27"/><g transform="matrix(.1 0 0 -.1 25.515 257.124)" id="text_28"><use xlink:href="#DejaVuSans-31" transform="translate(0 .766)"/><use xlink:href="#DejaVuSans-30" transform="translate(63.623 .766)"/><use xlink:href="#DejaVuSans-2212" transform="matrix(.7 0 0 .7 128.203 39.047)"/><use xlink:href="#DejaVuSans-36" transform="matrix(.7 0 0 .7 186.855 39.047)"/></g></g><g id="ytick_3"><use xlink:href="#m15a3f69701" x="56.015" y="206.838" style="stroke:#000;stroke-width:.8" id="line2d_28"/><g transform="matrix(.1 0 0 -.1 25.515 210.637)" id="text_29"><use xlink:href="#DejaVuSans-31" transform="translate(0 .684)"/><use xlink:href="#DejaVuSans-30" transform="translate(63.623 .684)"/><use xlink:href="#DejaVuSans-2212" transform="matrix(.7 0 0 .7 128.203 38.966)"/><use xlink:href="#DejaVuSans-35" transform="matrix(.7 0 0 .7 186.855 38.966)"/></g></g><g id="ytick_4"><use xlink:href="#m15a3f69701" x="56.015" y="160.351" style="stroke:#000;stroke-width:.8" id="line2d_29"/><g transform="matrix(.1 0 0 -.1 25.515 164.15)" id="text_30"><use xlink:href="#DejaVuSans-31" transform="translate(0 .684)"/><use xlink:href="#DejaVuSans-30" transform="translate(63.623 .684)"/><use xlink:href="#DejaVuSans-2212" transform="matrix(.7 0 0 .7 128.203 38.966)"/><use xlink:href="#DejaVuSans-34" transform="matrix(.7 0 0 .7 186.855 38.966)"/></g></g><g id="ytick_5"><use xlink:href="#m15a3f69701" x="56.015" y="113.864" style="stroke:#000;stroke-width:.8" id="line2d_30"/><g transform="matrix(.1 0 0 -.1 25.515 117.663)" id="text_31"><use xlink:href="#DejaVuSans-31" transform="translate(0 .766)"/><use xlink:href="#DejaVuSans-30" transform="translate(63.623 .766)"/><use xlink:href="#DejaVuSans-2212" transform="matrix(.7 0 0 .7 128.203 39.047)"/><use xlink:href="#DejaVuSans-33" transform="matrix(.7 0 0 .7 186.855 39.047)"/></g></g><g id="ytick_6"><use xlink:href="#m15a3f69701" x="56.015" y="67.377" style="stroke:#000;stroke-width:.8" id="line2d_31"/><g transform="matrix(.1 0 0 -.1 25.515 71.177)" id="text_32"><use xlink:href="#DejaVuSans-31" transform="translate(0 .766)"/><use xlink:href="#DejaVuSans-30" transform="translate(63.623 .766)"/><use xlink:href="#DejaVuSans-2212" transform="matrix(.7 0 0 .7 128.203 39.047)"/><use xlink:href="#DejaVuSans-32" transform="matrix(.7 0 0 .7 186.855 39.047)"/></g></g><g id="ytick_7"><use xlink:href="#m15a3f69701" x="56.015" y="20.891" style="stroke:#000;stroke-width:.8" id="line2d_32"/><g transform="matrix(.1 0 0 -.1 25.515 24.69)" id="text_33"><use xlink:href="#DejaVuSans-31" transform="translate(0 .684)"/><use xlink:href="#DejaVuSans-30" transform="translate(63.623 .684)"/><use xlink:href="#DejaVuSans-2212" transform="matrix(.7 0 0 .7 128.203 38.966)"/><use xlink:href="#DejaVuSans-31" transform="matrix(.7 0 0 .7 186.855 38.966)"/></g></g><g id="ytick_8"><g id="line2d_33"><defs><path id="m563077388b" d="M0 0h-2" style="stroke:#000;stroke-width:.6"/></defs><use xlink:href="#m563077388b" x="56.015" y="301.938" style="stroke:#000;stroke-width:.6"/></g></g><g id="ytick_9"><use xlink:href="#m563077388b" x="56.015" y="285.817" style="stroke:#000;stroke-width:.6" id="line2d_34"/></g><g id="ytick_10"><use xlink:href="#m563077388b" x="56.015" y="277.631" style="stroke:#000;stroke-width:.6" id="line2d_35"/></g><g id="ytick_11"><use xlink:href="#m563077388b" x="56.015" y="271.823" style="stroke:#000;stroke-width:.6" id="line2d_36"/></g><g id="ytick_12"><use xlink:href="#m563077388b" x="56.015" y="267.318" style="stroke:#000;stroke-width:.6" id="line2d_37"/></g><g id="ytick_13"><use xlink:href="#m563077388b" x="56.015" y="263.638" style="stroke:#000;stroke-width:.6" id="line2d_38"/></g><g id="ytick_14"><use xlink:href="#m563077388b" x="56.015" y="260.525" style="stroke:#000;stroke-width:.6" id="line2d_39"/></g><g id="ytick_15"><use xlink:href="#m563077388b" x="56.015" y="257.83" style="stroke:#000;stroke-width:.6" id="line2d_40"/></g><g id="ytick_16"><use xlink:href="#m563077388b" x="56.015" y="255.452" style="stroke:#000;stroke-width:.6" id="line2d_41"/></g><g id="ytick_17"><use xlink:href="#m563077388b" x="56.015" y="239.331" style="stroke:#000;stroke-width:.6" id="line2d_42"/></g><g id="ytick_18"><use xlink:href="#m563077388b" x="56.015" y="231.145" style="stroke:#000;stroke-width:.6" id="line2d_43"/></g><g id="ytick_19"><use xlink:href="#m563077388b" x="56.015" y="225.337" style="stroke:#000;stroke-width:.6" id="line2d_44"/></g><g id="ytick_20"><use xlink:href="#m563077388b" x="56.015" y="220.832" style="stroke:#000;stroke-width:.6" id="line2d_45"/></g><g id="ytick_21"><use xlink:href="#m563077388b" x="56.015" y="217.151" style="stroke:#000;stroke-width:.6" id="line2d_46"/></g><g id="ytick_22"><use xlink:href="#m563077388b" x="56.015" y="214.039" style="stroke:#000;stroke-width:.6" id="line2d_47"/></g><g id="ytick_23"><use xlink:href="#m563077388b" x="56.015" y="211.343" style="stroke:#000;stroke-width:.6" id="line2d_48"/></g><g id="ytick_24"><use xlink:href="#m563077388b" x="56.015" y="208.965" style="stroke:#000;stroke-width:.6" id="line2d_49"/></g><g id="ytick_25"><use xlink:href="#m563077388b" x="56.015" y="192.844" style="stroke:#000;stroke-width:.6" id="line2d_50"/></g><g id="ytick_26"><use xlink:href="#m563077388b" x="56.015" y="184.658" style="stroke:#000;stroke-width:.6" id="line2d_51"/></g><g id="ytick_27"><use xlink:href="#m563077388b" x="56.015" y="178.85" style="stroke:#000;stroke-width:.6" id="line2d_52"/></g><g id="ytick_28"><use xlink:href="#m563077388b" x="56.015" y="174.345" style="stroke:#000;stroke-width:.6" id="line2d_53"/></g><g id="ytick_29"><use xlink:href="#m563077388b" x="56.015" y="170.664" style="stroke:#000;stroke-width:.6" id="line2d_54"/></g><g id="ytick_30"><use xlink:href="#m563077388b" x="56.015" y="167.552" style="stroke:#000;stroke-width:.6" id="line2d_55"/></g><g id="ytick_31"><use xlink:href="#m563077388b" x="56.015" y="164.856" style="stroke:#000;stroke-width:.6" id="line2d_56"/></g><g id="ytick_32"><use xlink:href="#m563077388b" x="56.015" y="162.478" style="stroke:#000;stroke-width:.6" id="line2d_57"/></g><g id="ytick_33"><use xlink:href="#m563077388b" x="56.015" y="146.357" style="stroke:#000;stroke-width:.6" id="line2d_58"/></g><g id="ytick_34"><use xlink:href="#m563077388b" x="56.015" y="138.171" style="stroke:#000;stroke-width:.6" id="line2d_59"/></g><g id="ytick_35"><use xlink:href="#m563077388b" x="56.015" y="132.363" style="stroke:#000;stroke-width:.6" id="line2d_60"/></g><g id="ytick_36"><use xlink:href="#m563077388b" x="56.015" y="127.858" style="stroke:#000;stroke-width:.6" id="line2d_61"/></g><g id="ytick_37"><use xlink:href="#m563077388b" x="56.015" y="124.177" style="stroke:#000;stroke-width:.6" id="line2d_62"/></g><g id="ytick_38"><use xlink:href="#m563077388b" x="56.015" y="121.065" style="stroke:#000;stroke-width:.6" id="line2d_63"/></g><g id="ytick_39"><use xlink:href="#m563077388b" x="56.015" y="118.369" style="stroke:#000;stroke-width:.6" id="line2d_64"/></g><g id="ytick_40"><use xlink:href="#m563077388b" x="56.015" y="115.991" style="stroke:#000;stroke-width:.6" id="line2d_65"/></g><g id="ytick_41"><use xlink:href="#m563077388b" x="56.015" y="99.87" style="stroke:#000;stroke-width:.6" id="line2d_66"/></g><g id="ytick_42"><use xlink:href="#m563077388b" x="56.015" y="91.684" style="stroke:#000;stroke-width:.6" id="line2d_67"/></g><g id="ytick_43"><use xlink:href="#m563077388b" x="56.015" y="85.876" style="stroke:#000;stroke-width:.6" id="line2d_68"/></g><g id="ytick_44"><use xlink:href="#m563077388b" x="56.015" y="81.371" style="stroke:#000;stroke-width:.6" id="line2d_69"/></g><g id="ytick_45"><use xlink:href="#m563077388b" x="56.015" y="77.69" style="stroke:#000;stroke-width:.6" id="line2d_70"/></g><g id="ytick_46"><use xlink:href="#m563077388b" x="56.015" y="74.578" style="stroke:#000;stroke-width:.6" id="line2d_71"/></g><g id="ytick_47"><use xlink:href="#m563077388b" x="56.015" y="71.882" style="stroke:#000;stroke-width:.6" id="line2d_72"/></g><g id="ytick_48"><use xlink:href="#m563077388b" x="56.015" y="69.504" style="stroke:#000;stroke-width:.6" id="line2d_73"/></g><g id="ytick_49"><use xlink:href="#m563077388b" x="56.015" y="53.383" style="stroke:#000;stroke-width:.6" id="line2d_74"/></g><g id="ytick_50"><use xlink:href="#m563077388b" x="56.015" y="45.198" style="stroke:#000;stroke-width:.6" id="line2d_75"/></g><g id="ytick_51"><use xlink:href="#m563077388b" x="56.015" y="39.39" style="stroke:#000;stroke-width:.6" id="line2d_76"/></g><g id="ytick_52"><use xlink:href="#m563077388b" x="56.015" y="34.884" style="stroke:#000;stroke-width:.6" id="line2d_77"/></g><g id="ytick_53"><use xlink:href="#m563077388b" x="56.015" y="31.204" style="stroke:#000;stroke-width:.6" id="line2d_78"/></g><g id="ytick_54"><use xlink:href="#m563077388b" x="56.015" y="28.091" style="stroke:#000;stroke-width:.6" id="line2d_79"/></g><g id="ytick_55"><use xlink:href="#m563077388b" x="56.015" y="25.396" style="stroke:#000;stroke-width:.6" id="line2d_80"/></g><g id="ytick_56"><use xlink:href="#m563077388b" x="56.015" y="23.018" style="stroke:#000;stroke-width:.6" id="line2d_81"/></g><g transform="matrix(0 -.1 -.1 0 19.436 186.198)" id="text_34"><defs><path id="DejaVuSans-52" d="M2841 2188q203-69 395-294t386-619L4263 0h-679l-596 1197q-232 469-449 622t-592 153h-688V0H628v4666h1425q800 0 1194-335 394-334 394-1009 0-441-205-732-205-290-595-402zM1259 4147V2491h794q456 0 689 211t233 620q0 409-233 617t-689 208h-794z" transform="scale(.01563)"/><path id="DejaVuSans-75" d="M544 1381v2119h575V1403q0-497 193-746 194-248 582-248 465 0 735 297 271 297 271 810v1984h575V0h-575v538q-209-319-486-474-276-155-642-155-603 0-916 375-312 375-312 1097zm1447 2203z" transform="scale(.01563)"/><path id="DejaVuSans-6e" d="M3513 2113V0h-575v2094q0 497-194 743-194 247-581 247-466 0-735-297-269-296-269-809V0H581v3500h578v-544q207 316 486 472 280 156 646 156 603 0 912-373 310-373 310-1098z" transform="scale(.01563)"/><path id="DejaVuSans-74" d="M1172 4494v-994h1184v-447H1172V1153q0-428 117-550t477-122h590V0h-590q-666 0-919 248-253 249-253 905v1900H172v447h422v994h578z" transform="scale(.01563)"/><path id="DejaVuSans-69" d="M603 3500h575V0H603v3500zm0 1363h575v-729H603v729z" transform="scale(.01563)"/><path id="DejaVuSans-6d" d="M3328 2828q216 388 516 572t706 184q547 0 844-383 297-382 297-1088V0h-578v2094q0 503-179 746-178 244-543 244-447 0-707-297-259-296-259-809V0h-578v2094q0 506-178 748t-550 242q-441 0-701-298-259-298-259-808V0H581v3500h578v-544q197 322 472 475t653 153q382 0 649-194 267-193 395-562z" transform="scale(.01563)"/><path id="DejaVuSans-65" d="M3597 1894v-281H953q38-594 358-905t892-311q331 0 642 81t618 244V178Q3153 47 2828-22t-659-69q-838 0-1327 487-489 488-489 1320 0 859 464 1363 464 505 1252 505 706 0 1117-455 411-454 411-1235zm-575 169q-6 471-264 752-258 282-683 282-481 0-770-272t-333-766l2050 4z" transform="scale(.01563)"/><path id="DejaVuSans-28" d="M1984 4856q-418-718-622-1422-203-703-203-1425 0-721 205-1429t620-1424h-500Q1016-109 783 600T550 2009q0 697 231 1403 232 707 703 1444h500z" transform="scale(.01563)"/><path id="DejaVuSans-73" d="M2834 3397v-544q-243 125-506 187-262 63-544 63-428 0-642-131t-214-394q0-200 153-314t616-217l197-44q612-131 870-370t258-667q0-488-386-773Q2250-91 1575-91q-281 0-586 55T347 128v594q319-166 628-249 309-82 613-82 406 0 624 139 219 139 219 392 0 234-158 359-157 125-692 241l-200 47q-534 112-772 345-237 233-237 639 0 494 350 762 350 269 994 269 318 0 599-47 282-46 519-140z" transform="scale(.01563)"/><path id="DejaVuSans-29" d="M513 4856h500q468-737 701-1444 233-706 233-1403 0-700-233-1409T1013-844H513q415 716 620 1424t205 1429q0 722-205 1425-205 704-620 1422z" transform="scale(.01563)"/></defs><use xlink:href="#DejaVuSans-52"/><use xlink:href="#DejaVuSans-75" x="64.982"/><use xlink:href="#DejaVuSans-6e" x="128.361"/><use xlink:href="#DejaVuSans-74" x="191.74"/><use xlink:href="#DejaVuSans-69" x="230.949"/><use xlink:href="#DejaVuSans-6d" x="258.732"/><use xlink:href="#DejaVuSans-65" x="356.145"/><use xlink:href="#DejaVuSans-20" x="417.668"/><use xlink:href="#DejaVuSans-28" x="449.455"/><use xlink:href="#DejaVuSans-73" x="488.469"/><use xlink:href="#DejaVuSans-29" x="540.568"/></g></g><path d="M68.138 170.431v-.01m15.153 3.689v-.033m15.153 4.809v-.009m15.154-7.991v-.03m15.153-35.292v-.004m15.153 84.45v-.003m15.153-35.819v-.012m15.153-15.886v-.02m15.154 4.125v-.008m15.153 3.52v-.006m15.153-8.104v-.01m15.154-52.585v-.015m15.153 56.378v-.007m15.153 24.162v-.016m15.154-74.838v-.03m15.153 62.022v-.009M310.59 290.33v-.019m15.153-186.348v-.007m30.307 22.327v-.013m15.153 147.417v-.016m15.153-104.793v-.017m15.154-56.994v-.012m15.153 51.334v-.013m15.153-114.857v-.003" clip-path="url(#p586fb0ebf7)" style="fill:none;stroke:#000;stroke-width:1.5" id="LineCollection_1"/><path d="M74.2 170.723v-.007m15.153 4.054v-.053m15.153-6.086v-.002m15.153-11.531v-.005m15.153-37.667v-.013m15.154 99.504v-.004m15.153-47.673v-.015m15.153-23.811v-.019m15.153-1.951v-.01m15.154 30.441v-.005m15.153-25.235v-.017M240.885 50.01v-.028m15.153 127.449v-.013m15.154-6.935v-.011m15.153-117.847v-.011m15.153 130.169v-.016m15.153 11.297v-.017m15.154-147.56v-.003m15.153-5.583v-.002m15.153 7.542v-.001m15.153 120.098v-.019m15.154-77.187v-.002m15.152-67.156v-.005m15.154 48.783v-.003" clip-path="url(#p586fb0ebf7)" style="fill:none;stroke:#000;stroke-width:1.5" id="LineCollection_2"/><path d="M56.015 303.64V10.8" style="fill:none;stroke:#000;stroke-width:.8;stroke-linejoin:miter;stroke-linecap:square" id="patch_52"/><path d="M450 303.64V10.8" style="fill:none;stroke:#000;stroke-width:.8;stroke-linejoin:miter;stroke-linecap:square" id="patch_53"/><path d="M56.015 303.64H450" style="fill:none;stroke:#000;stroke-width:.8;stroke-linejoin:miter;stroke-linecap:square" id="patch_54"/><path d="M56.015 10.8H450" style="fill:none;stroke:#000;stroke-width:.8;stroke-linejoin:miter;stroke-linecap:square" id="patch_55"/><g id="legend_1"><path d="M63.015 48.156h61.28q2 0 2-2V17.8q0-2-2-2h-61.28q-2 0-2 2v28.356q0 2 2 2z" style="fill:#fff;opacity:.8;stroke:#ccc;stroke-linejoin:miter" id="patch_56"/><path d="M65.015 27.398h20v-7h-20z" style="fill:#1f77b4" id="patch_57"/><g transform="matrix(.1 0 0 -.1 93.015 27.398)" id="text_35"><defs><path id="DejaVuSans-50" d="M1259 4147V2394h794q441 0 681 228 241 228 241 650 0 419-241 647-240 228-681 228h-794zm-631 519h1425q785 0 1186-355 402-355 402-1039 0-691-402-1044-401-353-1186-353h-794V0H628v4666z" transform="scale(.01563)"/><path id="DejaVuSans-72" d="M2631 2963q-97 56-211 82-114 27-251 27-488 0-749-317t-261-911V0H581v3500h578v-544q182 319 472 473 291 155 707 155 59 0 131-8 72-7 159-23l3-590z" transform="scale(.01563)"/></defs><use xlink:href="#DejaVuSans-50"/><use xlink:href="#DejaVuSans-61" x="55.803"/><use xlink:href="#DejaVuSans-72" x="117.082"/><use xlink:href="#DejaVuSans-74" x="158.195"/><use xlink:href="#DejaVuSans-20" x="197.404"/><use xlink:href="#DejaVuSans-31" x="229.191"/></g><path d="M65.015 42.077h20v-7h-20z" style="fill:#ff7f0e" id="patch_58"/><g transform="matrix(.1 0 0 -.1 93.015 42.077)" id="text_36"><use xlink:href="#DejaVuSans-50"/><use xlink:href="#DejaVuSans-61" x="55.803"/><use xlink:href="#DejaVuSans-72" x="117.082"/><use xlink:href="#DejaVuSans-74" x="158.195"/><use xlink:href="#DejaVuSans-20" x="197.404"/><use xlink:href="#DejaVuSans-32" x="229.191"/></g></g></g></g><defs><clipPath id="p586fb0ebf7"><path d="M56.015 10.8H450v292.84H56.015z"/></clipPath></defs></svg>
